<svg width="32" height="32" viewBox="0 0 32 32" fill="none" xmlns="http://www.w3.org/2000/svg">
  <path d="M16 0C7.163 0 0 7.163 0 16C0 24.837 7.163 32 16 32C24.837 32 32 24.837 32 16C32 7.163 24.837 0 16 0Z" fill="#6FBCF0"/>
  <path d="M23.5 16.5C23.5 20.366 20.366 23.5 16.5 23.5C12.634 23.5 9.5 20.366 9.5 16.5C9.5 12.634 12.634 9.5 16.5 9.5C20.366 9.5 23.5 12.634 23.5 16.5Z" fill="white"/>
  <path d="M16.5 21.5C19.2614 21.5 21.5 19.2614 21.5 16.5C21.5 13.7386 19.2614 11.5 16.5 11.5C13.7386 11.5 11.5 13.7386 11.5 16.5C11.5 19.2614 13.7386 21.5 16.5 21.5Z" fill="#6FBCF0"/>
</svg> 